<?xml version="1.0" encoding="UTF-8" standalone="no"?>
<!-- Created with Bouml (http://bouml.free.fr/) -->
<!DOCTYPE svg PUBLIC "-//W3C//DTD SVG 1.1//EN" "http://www.w3.org/Graphics/SVG/1.1/DTD/svg11.dtd">
<svg width="984" height="472" version="1.1" xmlns="http://www.w3.org/2000/svg">
<g>
	<rect fill="#cbcbcb" stroke="none" stroke-opacity="1" x="822" y="106" width="3" height="271" />
	<rect fill="#cbcbcb" stroke="none" stroke-opacity="1" x="710" y="374" width="115" height="3" />
	<rect fill="#f6f6f6" stroke="black" stroke-width="1" stroke-opacity="1" x="706" y="102" width="116" height="272" />
	<text font-family="Helvetica" font-size="10" fill="#000000" xml:space="preserve" font-weight="bold" text-anchor="middle" x="764" y="114">Agent</text>
	<line stroke="black" stroke-opacity="1" x1="706" y1="122" x2="822" y2="122" />
	<line stroke="black" stroke-opacity="1" x1="706" y1="130" x2="822" y2="130" />
	<text font-family="Helvetica" font-size="10" fill="#000000" xml:space="preserve" x="710" y="142">Update(in Date : )</text>
</g>
<g>
	<rect fill="#cbcbcb" stroke="none" stroke-opacity="1" x="552" y="388" width="3" height="35" />
	<rect fill="#cbcbcb" stroke="none" stroke-opacity="1" x="420" y="420" width="135" height="3" />
	<rect fill="#f6f6f6" stroke="black" stroke-width="1" stroke-opacity="1" x="416" y="384" width="136" height="36" />
	<text font-family="Helvetica" font-size="10" fill="#000000" xml:space="preserve" font-weight="bold" text-anchor="middle" x="484" y="396">UtilityFunction</text>
	<line stroke="black" stroke-opacity="1" x1="416" y1="404" x2="552" y2="404" />
	<line stroke="black" stroke-opacity="1" x1="416" y1="412" x2="552" y2="412" />
</g>
<g>
	<polygon fill="#ffdca8" stroke="black" stroke-opacity="1" points="646,284 724,284 724,294 734,294 734,318 646,318 646,284" />
	<line stroke="black" stroke-opacity="1" x1="724" y1="284" x2="734" y2="294" />
	<text font-family="Helvetica" font-size="7" fill="#000000" xml:space="preserve" font-weight="bold" x="656" y="305">&lt;&lt;Command&gt;&gt;</text>
</g>
<g>
	<polygon fill="#ffdca8" stroke="black" stroke-opacity="1" points="45,19 309,19 309,29 319,29 319,103 45,103 45,19" />
	<line stroke="black" stroke-opacity="1" x1="309" y1="19" x2="319" y2="29" />
	<text font-family="Helvetica" font-size="10" fill="#000000" xml:space="preserve" x="55" y="45">- All Classes are abstracts</text>
	<text font-family="Helvetica" font-size="10" fill="#000000" xml:space="preserve" x="55" y="61">- Unit test shall be done by sending</text>
	<text font-family="Helvetica" font-size="10" fill="#000000" xml:space="preserve" x="55" y="77">PerceptSequences to Agent and checking</text>
	<text font-family="Helvetica" font-size="10" fill="#000000" xml:space="preserve" x="55" y="93">result according AgentFunction.</text>
</g>
<g>
	<polygon fill="#ffdca8" stroke="black" stroke-opacity="1" points="544,57 634,57 634,67 644,67 644,91 544,91 544,57" />
	<line stroke="black" stroke-opacity="1" x1="634" y1="57" x2="644" y2="67" />
	<text font-family="Helvetica" font-size="7" fill="#000000" xml:space="preserve" font-weight="bold" x="554" y="78">Design &amp; Testing</text>
</g>
<g>
	<rect fill="#cbcbcb" stroke="none" stroke-opacity="1" x="282" y="121" width="3" height="249" />
	<rect fill="#cbcbcb" stroke="none" stroke-opacity="1" x="118" y="367" width="167" height="3" />
	<rect fill="#f6f6f6" stroke="black" stroke-width="1" stroke-opacity="1" x="114" y="117" width="168" height="250" />
	<text font-family="Helvetica" font-size="10" fill="#000000" xml:space="preserve" font-weight="bold" text-anchor="middle" x="198" y="129">Environment</text>
	<line stroke="black" stroke-opacity="1" x1="114" y1="137" x2="282" y2="137" />
	<line stroke="black" stroke-opacity="1" x1="114" y1="145" x2="282" y2="145" />
	<text font-family="Helvetica" font-size="10" fill="#000000" xml:space="preserve" x="118" y="157">Update(in Date : )</text>
</g>
<g>
	<rect fill="#cbcbcb" stroke="none" stroke-opacity="1" x="568" y="197" width="3" height="35" />
	<rect fill="#cbcbcb" stroke="none" stroke-opacity="1" x="488" y="229" width="83" height="3" />
	<rect fill="#f6f6f6" stroke="black" stroke-width="1" stroke-opacity="1" x="484" y="193" width="84" height="36" />
	<text font-family="Helvetica" font-size="10" fill="#000000" xml:space="preserve" font-weight="bold" text-anchor="middle" x="526" y="205">Sensor</text>
	<line stroke="black" stroke-opacity="1" x1="484" y1="213" x2="568" y2="213" />
	<line stroke="black" stroke-opacity="1" x1="484" y1="221" x2="568" y2="221" />
</g>
<g>
	<rect fill="#cbcbcb" stroke="none" stroke-opacity="1" x="636" y="254" width="3" height="37" />
	<rect fill="#cbcbcb" stroke="none" stroke-opacity="1" x="556" y="288" width="83" height="3" />
	<rect fill="#f6f6f6" stroke="black" stroke-width="1" stroke-opacity="1" x="552" y="250" width="84" height="38" />
	<text font-family="Helvetica" font-size="10" fill="#000000" xml:space="preserve" font-weight="bold" text-anchor="middle" x="594" y="262">Actuator</text>
	<line stroke="black" stroke-opacity="1" x1="552" y1="270" x2="636" y2="270" />
	<line stroke="black" stroke-opacity="1" x1="552" y1="278" x2="636" y2="278" />
</g>
<g>
	<rect fill="#cbcbcb" stroke="none" stroke-opacity="1" x="674" y="171" width="3" height="35" />
	<rect fill="#cbcbcb" stroke="none" stroke-opacity="1" x="578" y="203" width="99" height="3" />
	<rect fill="#f6f6f6" stroke="black" stroke-width="1" stroke-opacity="1" x="574" y="167" width="100" height="36" />
	<text font-family="Helvetica" font-size="10" fill="#000000" xml:space="preserve" font-weight="bold" text-anchor="middle" x="624" y="179">Percept</text>
	<line stroke="black" stroke-opacity="1" x1="574" y1="187" x2="674" y2="187" />
	<line stroke="black" stroke-opacity="1" x1="574" y1="195" x2="674" y2="195" />
</g>
<g>
	<rect fill="#cbcbcb" stroke="none" stroke-opacity="1" x="525" y="33" width="3" height="65" />
	<rect fill="#cbcbcb" stroke="none" stroke-opacity="1" x="349" y="95" width="179" height="3" />
	<rect fill="#f6f6f6" stroke="black" stroke-width="1" stroke-opacity="1" x="345" y="29" width="180" height="66" />
	<text font-family="Helvetica" font-size="10" fill="#000000" xml:space="preserve" font-weight="bold" text-anchor="middle" x="435" y="41">AgentFunction</text>
	<line stroke="black" stroke-opacity="1" x1="345" y1="49" x2="525" y2="49" />
	<text font-family="Helvetica" font-size="10" fill="#000000" xml:space="preserve" x="349" y="61">PerceptSequences : </text>
	<text font-family="Helvetica" font-size="10" fill="#000000" xml:space="preserve" x="349" y="79">MatchingActions : </text>
	<line stroke="black" stroke-opacity="1" x1="345" y1="87" x2="525" y2="87" />
</g>
<g>
	<rect fill="#cbcbcb" stroke="none" stroke-opacity="1" x="488" y="299" width="3" height="59" />
	<rect fill="#cbcbcb" stroke="none" stroke-opacity="1" x="324" y="355" width="167" height="3" />
	<rect fill="#f6f6f6" stroke="black" stroke-width="1" stroke-opacity="1" x="320" y="295" width="168" height="60" />
	<text font-family="Helvetica" font-size="10" fill="#000000" xml:space="preserve" font-weight="bold" text-anchor="middle" x="404" y="307">PerformanceMeasure</text>
	<line stroke="black" stroke-opacity="1" x1="320" y1="315" x2="488" y2="315" />
	<line stroke="black" stroke-opacity="1" x1="320" y1="323" x2="488" y2="323" />
	<text font-family="Helvetica" font-size="10" fill="#000000" xml:space="preserve" x="324" y="335">Benchmark()</text>
</g>
<g>
	<line stroke="black" stroke-opacity="1" x1="286" y1="155" x2="705" y2="157" />
	<polygon fill="#ffffff" stroke="black" stroke-opacity="1" points="286,155 292,149 297,155 291,161" />
</g>
<g>
	<line stroke="black" stroke-opacity="1" x1="705" y1="270" x2="640" y2="270" />
	<polygon fill="#ffffff" stroke="black" stroke-opacity="1" points="705,270 699,276 693,270 699,264" />
</g>
<g>
	<line stroke="black" stroke-opacity="1" x1="705" y1="210" x2="572" y2="209" />
	<polygon fill="#ffffff" stroke="black" stroke-opacity="1" points="705,210 698,215 693,209 699,203" />
</g>
<g>
	<line stroke="black" stroke-opacity="1" x1="286" y1="216" x2="292" y2="222" />
	<line stroke="black" stroke-opacity="1" x1="286" y1="216" x2="292" y2="210" />
	<line stroke-dasharray="4,4" stroke="black" stroke-opacity="1" x1="483" y1="216" x2="286" y2="216" />
</g>
<g>
	<line stroke="black" stroke-opacity="1" x1="286" y1="325" x2="319" y2="325" />
	<polygon fill="#ffffff" stroke="black" stroke-opacity="1" points="286,325 292,319 298,325 292,331" />
</g>
<g>
	<line stroke="black" stroke-opacity="1" x1="705" y1="350" x2="625" y2="352" />
	<polygon fill="#ffffff" stroke="black" stroke-opacity="1" points="705,350 699,356 693,350 698,344" />
</g>
<g>
	<line stroke="#000000" stroke-opacity="1" x1="465" y1="383" x2="443" y2="363" />
	<line stroke="#000000" stroke-opacity="1" x1="439" y1="359" x2="439" y2="367" />
	<line stroke="#000000" stroke-opacity="1" x1="439" y1="359" x2="447" y2="358" />
	<line stroke="#000000" stroke-opacity="1" x1="439" y1="367" x2="447" y2="358" />
</g>
<g>
	<line stroke="black" stroke-opacity="1" x1="625" y1="352" x2="624" y2="404" />
</g>
<g>
	<line stroke="black" stroke-opacity="1" x1="624" y1="404" x2="556" y2="404" />
</g>
<g>
	<polygon fill="#ffdca8" stroke="black" stroke-opacity="1" points="683,166 757,166 757,176 767,176 767,200 683,200 683,166" />
	<line stroke="black" stroke-opacity="1" x1="757" y1="166" x2="767" y2="176" />
	<text font-family="Helvetica" font-size="7" fill="#000000" xml:space="preserve" font-weight="bold" x="693" y="187">&lt;&lt;Observer&gt;&gt;</text>
</g>
<g>
	<polygon fill="#ffdca8" stroke="black" stroke-opacity="1" points="293,344 367,344 367,354 377,354 377,378 293,378 293,344" />
	<line stroke="black" stroke-opacity="1" x1="367" y1="344" x2="377" y2="354" />
	<text font-family="Helvetica" font-size="7" fill="#000000" xml:space="preserve" font-weight="bold" x="303" y="365">&lt;&lt;Observer&gt;&gt;</text>
</g>
<g>
	<rect fill="#cbcbcb" stroke="none" stroke-opacity="1" x="419" y="253" width="3" height="35" />
	<rect fill="#cbcbcb" stroke="none" stroke-opacity="1" x="325" y="285" width="97" height="3" />
	<rect fill="#f6f6f6" stroke="black" stroke-width="1" stroke-opacity="1" x="321" y="249" width="98" height="36" />
	<text font-family="Helvetica" font-size="10" fill="#000000" xml:space="preserve" font-weight="bold" text-anchor="middle" x="370" y="261">Action</text>
	<line stroke="black" stroke-opacity="1" x1="321" y1="269" x2="419" y2="269" />
	<line stroke="black" stroke-opacity="1" x1="321" y1="277" x2="419" y2="277" />
</g>
<g>
	<line stroke="black" stroke-opacity="1" x1="595" y1="166" x2="593" y2="157" />
	<line stroke="black" stroke-opacity="1" x1="595" y1="166" x2="586" y2="167" />
	<line stroke-dasharray="4,4" stroke="black" stroke-opacity="1" x1="492" y1="99" x2="595" y2="166" />
</g>
<g>
	<line stroke="black" stroke-opacity="1" x1="377" y1="248" x2="384" y2="244" />
	<line stroke="black" stroke-opacity="1" x1="377" y1="248" x2="373" y2="240" />
	<line stroke-dasharray="4,4" stroke="black" stroke-opacity="1" x1="424" y1="99" x2="377" y2="248" />
</g>
<g>
	<line stroke="black" stroke-opacity="1" x1="423" y1="269" x2="428" y2="275" />
	<line stroke="black" stroke-opacity="1" x1="423" y1="269" x2="429" y2="263" />
	<line stroke="black" stroke-opacity="1" x1="551" y1="270" x2="423" y2="269" />
</g>
<g>
	<line stroke="black" stroke-opacity="1" x1="286" y1="270" x2="320" y2="269" />
	<polygon fill="#ffffff" stroke="black" stroke-opacity="1" points="286,270 291,263 297,269 292,275" />
</g>
</svg>
