<?xml version="1.0" encoding="UTF-8" standalone="no"?>
<!-- Created with Bouml (http://bouml.free.fr/) -->
<!DOCTYPE svg PUBLIC "-//W3C//DTD SVG 1.1//EN" "http://www.w3.org/Graphics/SVG/1.1/DTD/svg11.dtd">
<svg width="838" height="396" version="1.1" xmlns="http://www.w3.org/2000/svg">
<g>
	<rect fill="#cbcbcb" stroke="none" stroke-opacity="1" x="822" y="133" width="3" height="181" />
	<rect fill="#cbcbcb" stroke="none" stroke-opacity="1" x="706" y="311" width="119" height="3" />
	<rect fill="#f6f6f6" stroke="black" stroke-width="1" stroke-opacity="1" x="702" y="129" width="120" height="182" />
	<text font-family="Helvetica" font-size="10" fill="#000000" xml:space="preserve" font-weight="bold" text-anchor="middle" x="762" y="141">Agent</text>
	<line stroke="black" stroke-opacity="1" x1="702" y1="149" x2="822" y2="149" />
	<line stroke="black" stroke-opacity="1" x1="702" y1="157" x2="822" y2="157" />
	<text font-family="Helvetica" font-size="10" fill="#000000" xml:space="preserve" x="706" y="169">Update(in Date : )</text>
</g>
<g>
	<polygon fill="#ffdca8" stroke="black" stroke-opacity="1" points="600,295 678,295 678,305 688,305 688,329 600,329 600,295" />
	<line stroke="black" stroke-opacity="1" x1="678" y1="295" x2="688" y2="305" />
	<text font-family="Helvetica" font-size="7" fill="#000000" xml:space="preserve" font-weight="bold" x="610" y="316">&lt;&lt;Command&gt;&gt;</text>
</g>
<g>
	<polygon fill="#ffdca8" stroke="black" stroke-opacity="1" points="45,19 309,19 309,29 319,29 319,103 45,103 45,19" />
	<line stroke="black" stroke-opacity="1" x1="309" y1="19" x2="319" y2="29" />
	<text font-family="Helvetica" font-size="10" fill="#000000" xml:space="preserve" x="55" y="45">- All Classes are abstracts</text>
	<text font-family="Helvetica" font-size="10" fill="#000000" xml:space="preserve" x="55" y="61">- Unit test shall be done by sending</text>
	<text font-family="Helvetica" font-size="10" fill="#000000" xml:space="preserve" x="55" y="77">PerceptSequences to Agent and checking</text>
	<text font-family="Helvetica" font-size="10" fill="#000000" xml:space="preserve" x="55" y="93">result according AgentFunction.</text>
</g>
<g>
	<polygon fill="#ffdca8" stroke="black" stroke-opacity="1" points="544,57 634,57 634,67 644,67 644,91 544,91 544,57" />
	<line stroke="black" stroke-opacity="1" x1="634" y1="57" x2="644" y2="67" />
	<text font-family="Helvetica" font-size="7" fill="#000000" xml:space="preserve" font-weight="bold" x="554" y="78">Design &amp; Testing</text>
</g>
<g>
	<rect fill="#cbcbcb" stroke="none" stroke-opacity="1" x="282" y="121" width="3" height="249" />
	<rect fill="#cbcbcb" stroke="none" stroke-opacity="1" x="118" y="367" width="167" height="3" />
	<rect fill="#f6f6f6" stroke="black" stroke-width="1" stroke-opacity="1" x="114" y="117" width="168" height="250" />
	<text font-family="Helvetica" font-size="10" fill="#000000" xml:space="preserve" font-weight="bold" text-anchor="middle" x="198" y="129">Environment</text>
	<line stroke="black" stroke-opacity="1" x1="114" y1="137" x2="282" y2="137" />
	<line stroke="black" stroke-opacity="1" x1="114" y1="145" x2="282" y2="145" />
	<text font-family="Helvetica" font-size="10" fill="#000000" xml:space="preserve" x="118" y="157">Update(in Date : )</text>
</g>
<g>
	<rect fill="#cbcbcb" stroke="none" stroke-opacity="1" x="637" y="195" width="3" height="35" />
	<rect fill="#cbcbcb" stroke="none" stroke-opacity="1" x="557" y="227" width="83" height="3" />
	<rect fill="#f6f6f6" stroke="black" stroke-width="1" stroke-opacity="1" x="553" y="191" width="84" height="36" />
	<text font-family="Helvetica" font-size="10" fill="#000000" xml:space="preserve" font-weight="bold" text-anchor="middle" x="595" y="203">Sensor</text>
	<line stroke="black" stroke-opacity="1" x1="553" y1="211" x2="637" y2="211" />
	<line stroke="black" stroke-opacity="1" x1="553" y1="219" x2="637" y2="219" />
</g>
<g>
	<rect fill="#cbcbcb" stroke="none" stroke-opacity="1" x="636" y="254" width="3" height="37" />
	<rect fill="#cbcbcb" stroke="none" stroke-opacity="1" x="556" y="288" width="83" height="3" />
	<rect fill="#f6f6f6" stroke="black" stroke-width="1" stroke-opacity="1" x="552" y="250" width="84" height="38" />
	<text font-family="Helvetica" font-size="10" fill="#000000" xml:space="preserve" font-weight="bold" text-anchor="middle" x="594" y="262">Actuator</text>
	<line stroke="black" stroke-opacity="1" x1="552" y1="270" x2="636" y2="270" />
	<line stroke="black" stroke-opacity="1" x1="552" y1="278" x2="636" y2="278" />
</g>
<g>
	<rect fill="#cbcbcb" stroke="none" stroke-opacity="1" x="421" y="197" width="3" height="35" />
	<rect fill="#cbcbcb" stroke="none" stroke-opacity="1" x="325" y="229" width="99" height="3" />
	<rect fill="#f6f6f6" stroke="black" stroke-width="1" stroke-opacity="1" x="321" y="193" width="100" height="36" />
	<text font-family="Helvetica" font-size="10" fill="#000000" xml:space="preserve" font-weight="bold" text-anchor="middle" x="371" y="205">Percept</text>
	<line stroke="black" stroke-opacity="1" x1="321" y1="213" x2="421" y2="213" />
	<line stroke="black" stroke-opacity="1" x1="321" y1="221" x2="421" y2="221" />
</g>
<g>
	<rect fill="#cbcbcb" stroke="none" stroke-opacity="1" x="525" y="33" width="3" height="65" />
	<rect fill="#cbcbcb" stroke="none" stroke-opacity="1" x="349" y="95" width="179" height="3" />
	<rect fill="#f6f6f6" stroke="black" stroke-width="1" stroke-opacity="1" x="345" y="29" width="180" height="66" />
	<text font-family="Helvetica" font-size="10" fill="#000000" xml:space="preserve" font-weight="bold" text-anchor="middle" x="435" y="41">AgentFunction</text>
	<line stroke="black" stroke-opacity="1" x1="345" y1="49" x2="525" y2="49" />
	<text font-family="Helvetica" font-size="10" fill="#000000" xml:space="preserve" x="349" y="61">PerceptSequences : </text>
	<text font-family="Helvetica" font-size="10" fill="#000000" xml:space="preserve" x="349" y="79">MatchingActions : </text>
	<line stroke="black" stroke-opacity="1" x1="345" y1="87" x2="525" y2="87" />
</g>
<g>
	<rect fill="#cbcbcb" stroke="none" stroke-opacity="1" x="488" y="299" width="3" height="59" />
	<rect fill="#cbcbcb" stroke="none" stroke-opacity="1" x="324" y="355" width="167" height="3" />
	<rect fill="#f6f6f6" stroke="black" stroke-width="1" stroke-opacity="1" x="320" y="295" width="168" height="60" />
	<text font-family="Helvetica" font-size="10" fill="#000000" xml:space="preserve" font-weight="bold" text-anchor="middle" x="404" y="307">PerformanceMeasure</text>
	<line stroke="black" stroke-opacity="1" x1="320" y1="315" x2="488" y2="315" />
	<line stroke="black" stroke-opacity="1" x1="320" y1="323" x2="488" y2="323" />
	<text font-family="Helvetica" font-size="10" fill="#000000" xml:space="preserve" x="324" y="335">Benchmark()</text>
</g>
<g>
	<line stroke="black" stroke-opacity="1" x1="701" y1="206" x2="641" y2="207" />
	<polygon fill="#ffffff" stroke="black" stroke-opacity="1" points="701,206 695,212 689,206 694,200" />
</g>
<g>
	<line stroke="black" stroke-opacity="1" x1="286" y1="168" x2="701" y2="166" />
	<polygon fill="#ffffff" stroke="black" stroke-opacity="1" points="286,168 291,161 297,167 292,173" />
</g>
<g>
	<line stroke="black" stroke-opacity="1" x1="701" y1="268" x2="640" y2="269" />
	<polygon fill="#ffffff" stroke="black" stroke-opacity="1" points="701,268 695,274 689,268 694,262" />
</g>
<g>
	<line stroke="black" stroke-opacity="1" x1="552" y1="211" x2="545" y2="205" />
	<line stroke="black" stroke-opacity="1" x1="552" y1="211" x2="546" y2="217" />
	<line stroke="black" stroke-opacity="1" x1="425" y1="212" x2="552" y2="211" />
</g>
<g>
	<line stroke="black" stroke-opacity="1" x1="320" y1="214" x2="313" y2="208" />
	<line stroke="black" stroke-opacity="1" x1="320" y1="214" x2="314" y2="220" />
	<line stroke="black" stroke-opacity="1" x1="286" y1="215" x2="320" y2="214" />
</g>
<g>
	<line stroke="black" stroke-opacity="1" x1="319" y1="327" x2="283" y2="327" />
	<polygon fill="#ffffff" stroke="black" stroke-opacity="1" points="319,327 313,333 307,327 313,321" />
</g>
<g>
	<line stroke="black" stroke-opacity="1" x1="283" y1="327" x2="283" y2="319" />
</g>
<g>
	<line stroke="black" stroke-opacity="1" x1="283" y1="319" x2="286" y2="319" />
</g>
<g>
	<polygon fill="#ffdca8" stroke="black" stroke-opacity="1" points="599,213 673,213 673,223 683,223 683,247 599,247 599,213" />
	<line stroke="black" stroke-opacity="1" x1="673" y1="213" x2="683" y2="223" />
	<text font-family="Helvetica" font-size="7" fill="#000000" xml:space="preserve" font-weight="bold" x="609" y="234">&lt;&lt;Observer&gt;&gt;</text>
</g>
<g>
	<polygon fill="#ffdca8" stroke="black" stroke-opacity="1" points="299,350 373,350 373,360 383,360 383,384 299,384 299,350" />
	<line stroke="black" stroke-opacity="1" x1="373" y1="350" x2="383" y2="360" />
	<text font-family="Helvetica" font-size="7" fill="#000000" xml:space="preserve" font-weight="bold" x="309" y="371">&lt;&lt;Observer&gt;&gt;</text>
</g>
<g>
	<rect fill="#cbcbcb" stroke="none" stroke-opacity="1" x="419" y="253" width="3" height="35" />
	<rect fill="#cbcbcb" stroke="none" stroke-opacity="1" x="325" y="285" width="97" height="3" />
	<rect fill="#f6f6f6" stroke="black" stroke-width="1" stroke-opacity="1" x="321" y="249" width="98" height="36" />
	<text font-family="Helvetica" font-size="10" fill="#000000" xml:space="preserve" font-weight="bold" text-anchor="middle" x="370" y="261">Action</text>
	<line stroke="black" stroke-opacity="1" x1="321" y1="269" x2="419" y2="269" />
	<line stroke="black" stroke-opacity="1" x1="321" y1="277" x2="419" y2="277" />
</g>
<g>
	<line stroke="black" stroke-opacity="1" x1="377" y1="248" x2="384" y2="244" />
	<line stroke="black" stroke-opacity="1" x1="377" y1="248" x2="373" y2="240" />
	<line stroke-dasharray="4,4" stroke="black" stroke-opacity="1" x1="424" y1="99" x2="377" y2="248" />
</g>
<g>
	<line stroke="black" stroke-opacity="1" x1="286" y1="270" x2="320" y2="269" />
	<polygon fill="#ffffff" stroke="black" stroke-opacity="1" points="286,270 291,263 297,269 292,275" />
</g>
<g>
	<line stroke="black" stroke-opacity="1" x1="423" y1="269" x2="428" y2="275" />
	<line stroke="black" stroke-opacity="1" x1="423" y1="269" x2="429" y2="263" />
	<line stroke="black" stroke-opacity="1" x1="551" y1="270" x2="423" y2="269" />
</g>
<g>
	<line stroke="black" stroke-opacity="1" x1="380" y1="192" x2="387" y2="188" />
	<line stroke="black" stroke-opacity="1" x1="380" y1="192" x2="376" y2="184" />
	<line stroke-dasharray="4,4" stroke="black" stroke-opacity="1" x1="421" y1="99" x2="380" y2="192" />
</g>
</svg>
